<svg xmlns="http://www.w3.org/2000/svg" version="1.1" xmlns:xlink="http://www.w3.org/1999/xlink" xmlns:svgjs="http://svgjs.dev/svgjs" width="1440" height="560" preserveAspectRatio="none" viewBox="0 0 1440 560"><g mask="url(&quot;#SvgjsMask1126&quot;)" fill="none"><rect width="1440" height="560" x="0" y="0" fill="rgba(40, 53, 67, 1)"></rect><path d="M1195 335L1194 130" stroke-width="8" stroke="url(&quot;#SvgjsLinearGradient1127&quot;)" stroke-linecap="round" class="Down"></path><path d="M418 479L417 735" stroke-width="8" stroke="url(&quot;#SvgjsLinearGradient1128&quot;)" stroke-linecap="round" class="Up"></path><path d="M1341 367L1340 579" stroke-width="8" stroke="url(&quot;#SvgjsLinearGradient1129&quot;)" stroke-linecap="round" class="Up"></path><path d="M1236 344L1235 92" stroke-width="8" stroke="url(&quot;#SvgjsLinearGradient1130&quot;)" stroke-linecap="round" class="Down"></path><path d="M538 98L537 -299" stroke-width="6" stroke="url(&quot;#SvgjsLinearGradient1128&quot;)" stroke-linecap="round" class="Up"></path><path d="M1131 332L1130 744" stroke-width="8" stroke="url(&quot;#SvgjsLinearGradient1131&quot;)" stroke-linecap="round" class="Down"></path><path d="M1057 249L1056 612" stroke-width="8" stroke="url(&quot;#SvgjsLinearGradient1127&quot;)" stroke-linecap="round" class="Down"></path><path d="M977 226L976 -105" stroke-width="10" stroke="url(&quot;#SvgjsLinearGradient1131&quot;)" stroke-linecap="round" class="Down"></path><path d="M348 251L347 402" stroke-width="6" stroke="url(&quot;#SvgjsLinearGradient1132&quot;)" stroke-linecap="round" class="Up"></path><path d="M718 254L717 -37" stroke-width="6" stroke="url(&quot;#SvgjsLinearGradient1127&quot;)" stroke-linecap="round" class="Down"></path><path d="M672 506L671 334" stroke-width="8" stroke="url(&quot;#SvgjsLinearGradient1129&quot;)" stroke-linecap="round" class="Up"></path><path d="M641 130L640 -30" stroke-width="10" stroke="url(&quot;#SvgjsLinearGradient1132&quot;)" stroke-linecap="round" class="Up"></path><path d="M307 87L306 451" stroke-width="8" stroke="url(&quot;#SvgjsLinearGradient1130&quot;)" stroke-linecap="round" class="Down"></path><path d="M69 447L68 836" stroke-width="8" stroke="url(&quot;#SvgjsLinearGradient1132&quot;)" stroke-linecap="round" class="Up"></path><path d="M277 117L276 -282" stroke-width="8" stroke="url(&quot;#SvgjsLinearGradient1130&quot;)" stroke-linecap="round" class="Down"></path><path d="M365 141L364 527" stroke-width="6" stroke="url(&quot;#SvgjsLinearGradient1132&quot;)" stroke-linecap="round" class="Up"></path><path d="M752 278L751 559" stroke-width="8" stroke="url(&quot;#SvgjsLinearGradient1127&quot;)" stroke-linecap="round" class="Down"></path><path d="M668 280L667 -110" stroke-width="10" stroke="url(&quot;#SvgjsLinearGradient1132&quot;)" stroke-linecap="round" class="Up"></path><path d="M573 95L572 -287" stroke-width="8" stroke="url(&quot;#SvgjsLinearGradient1128&quot;)" stroke-linecap="round" class="Up"></path><path d="M113 87L112 -70" stroke-width="10" stroke="url(&quot;#SvgjsLinearGradient1129&quot;)" stroke-linecap="round" class="Up"></path><path d="M520 424L519 134" stroke-width="6" stroke="url(&quot;#SvgjsLinearGradient1127&quot;)" stroke-linecap="round" class="Down"></path><path d="M55 116L54 -190" stroke-width="8" stroke="url(&quot;#SvgjsLinearGradient1129&quot;)" stroke-linecap="round" class="Up"></path><path d="M483 434L482 102" stroke-width="6" stroke="url(&quot;#SvgjsLinearGradient1128&quot;)" stroke-linecap="round" class="Up"></path><path d="M586 229L585 611" stroke-width="10" stroke="url(&quot;#SvgjsLinearGradient1130&quot;)" stroke-linecap="round" class="Down"></path><path d="M114 8L113 164" stroke-width="6" stroke="url(&quot;#SvgjsLinearGradient1128&quot;)" stroke-linecap="round" class="Up"></path><path d="M1203 66L1202 -328" stroke-width="8" stroke="url(&quot;#SvgjsLinearGradient1128&quot;)" stroke-linecap="round" class="Up"></path><path d="M774 463L773 220" stroke-width="8" stroke="url(&quot;#SvgjsLinearGradient1129&quot;)" stroke-linecap="round" class="Up"></path><path d="M318 63L317 -225" stroke-width="10" stroke="url(&quot;#SvgjsLinearGradient1129&quot;)" stroke-linecap="round" class="Up"></path><path d="M279 195L278 -174" stroke-width="10" stroke="url(&quot;#SvgjsLinearGradient1130&quot;)" stroke-linecap="round" class="Down"></path><path d="M140 295L139 132" stroke-width="10" stroke="url(&quot;#SvgjsLinearGradient1130&quot;)" stroke-linecap="round" class="Down"></path><path d="M1213 175L1212 340" stroke-width="8" stroke="url(&quot;#SvgjsLinearGradient1127&quot;)" stroke-linecap="round" class="Down"></path><path d="M921 278L920 35" stroke-width="6" stroke="url(&quot;#SvgjsLinearGradient1132&quot;)" stroke-linecap="round" class="Up"></path><path d="M991 427L990 66" stroke-width="6" stroke="url(&quot;#SvgjsLinearGradient1132&quot;)" stroke-linecap="round" class="Up"></path><path d="M60 418L59 836" stroke-width="8" stroke="url(&quot;#SvgjsLinearGradient1127&quot;)" stroke-linecap="round" class="Down"></path><path d="M1409 506L1408 194" stroke-width="10" stroke="url(&quot;#SvgjsLinearGradient1131&quot;)" stroke-linecap="round" class="Down"></path><path d="M898 82L897 287" stroke-width="6" stroke="url(&quot;#SvgjsLinearGradient1129&quot;)" stroke-linecap="round" class="Up"></path></g><defs><mask id="SvgjsMask1126"><rect width="1440" height="560" fill="#ffffff"></rect></mask><linearGradient x1="0%" y1="0%" x2="0%" y2="100%" id="SvgjsLinearGradient1127"><stop stop-color="rgba(207, 115, 157, 0)" offset="0"></stop><stop stop-color="rgba(207, 115, 157, 1)" offset="1"></stop></linearGradient><linearGradient x1="0%" y1="100%" x2="0%" y2="0%" id="SvgjsLinearGradient1128"><stop stop-color="rgba(241, 153, 12, 0)" offset="0"></stop><stop stop-color="rgba(241, 153, 12, 1)" offset="1"></stop></linearGradient><linearGradient x1="0%" y1="100%" x2="0%" y2="0%" id="SvgjsLinearGradient1129"><stop stop-color="rgba(106, 173, 207, 0)" offset="0"></stop><stop stop-color="rgba(106, 173, 207, 1)" offset="1"></stop></linearGradient><linearGradient x1="0%" y1="0%" x2="0%" y2="100%" id="SvgjsLinearGradient1130"><stop stop-color="rgba(241, 153, 12, 0)" offset="0"></stop><stop stop-color="rgba(241, 153, 12, 1)" offset="1"></stop></linearGradient><linearGradient x1="0%" y1="0%" x2="0%" y2="100%" id="SvgjsLinearGradient1131"><stop stop-color="rgba(106, 173, 207, 0)" offset="0"></stop><stop stop-color="rgba(106, 173, 207, 1)" offset="1"></stop></linearGradient><linearGradient x1="0%" y1="100%" x2="0%" y2="0%" id="SvgjsLinearGradient1132"><stop stop-color="rgba(207, 115, 157, 0)" offset="0"></stop><stop stop-color="rgba(207, 115, 157, 1)" offset="1"></stop></linearGradient></defs></svg>